<svg xmlns="http://www.w3.org/2000/svg" viewBox="0 0 128 128" width="128" height="128">
      <!-- Trauma Pack -->
      <rect x="32" y="42" width="18" height="44" rx="8" fill="#1A1815" stroke="#473A2B" stroke-width="2"/>
      <rect x="40" y="56" width="3" height="16" fill="#D32F2F"/>
      <rect x="34" y="62" width="15" height="4" fill="#D32F2F"/>
      <!-- Shoulders -->
      <ellipse cx="64" cy="64" rx="20" ry="32" fill="#262D24" stroke="#3E4C3A" stroke-width="3"/>
      <!-- Shells -->
      <line x1="62" y1="52" x2="68" y2="52" stroke="#E74C3C" stroke-width="3"/>
      <line x1="62" y1="60" x2="68" y2="60" stroke="#E74C3C" stroke-width="3"/>
      <line x1="62" y1="68" x2="68" y2="68" stroke="#E74C3C" stroke-width="3"/>
      <!-- Arms -->
      <path d="M68 36 L100 48 L94 58 L66 48 Z" fill="#2E382B"/>
      <path d="M68 92 L98 80 L92 70 L66 80 Z" fill="#2E382B"/>
      <!-- Shotgun & Muzzle Brake -->
      <rect x="82" y="59" width="34" height="10" fill="#15171A" stroke="#4B5361" stroke-width="1.5"/>
      <rect x="116" y="57" width="6" height="14" fill="#5A6273" stroke="#768196" stroke-width="1"/>
      <circle cx="112" cy="73" r="3" fill="#FF9E1B"/>
      <!-- Helmet & Visor -->
      <circle cx="64" cy="64" r="15" fill="#1B211A" stroke="#43523F" stroke-width="2"/>
      <path d="M72 55 A 12 12 0 0 1 72 73" fill="none" stroke="#E67E22" stroke-width="3"/>
    </svg>